<?xml version="1.0" encoding="UTF-8"?>
<svg xmlns="http://www.w3.org/2000/svg" width="331.440625" height="334">
   <defs>
      <style type="text/css">
                        text {
                            font-family: 'Arial';
                            fill: black;
                        }
                        text.at {
                            font-family: 'Arial';
                            fill: rgb(242, 152, 0);
                        }
                        line {
                            stroke: black;
                        }
                        line.type-structure {
                            stroke: black;
                        }
                        line.type-structure-optional {
                            stroke: black;
                            stroke-dasharray: 4, 4;
                        }
                        rect.attribute-upper {
                            stroke: black;
                            fill: rgb(255, 239, 211);
                        }
                        rect.element-upper {
                            stroke: black;
                            fill: rgb(215, 227, 249);
                        }
                        rect.element-lower {
                            stroke: black;
                            fill: rgb(236, 242, 252);
                        }
                        a text {
                            fill: black;
                        } 
                    </style>
   </defs>
   <rect width="321.440625"
         height="324"
         stroke-dasharray="3,3"
         rx="1"
         ry="1"
         style="stroke: grey;fill: white;"/>
   <text font-size="14" x="3.6" y="18" font-weight="bold">complexType SDGEvidenceTypeMetadataType</text>
   <g transform="translate(10,34)">
      <g transform="translate(55,0)">
         <rect width="142.03125" height="18" class="element-upper"/>
         <rect width="142.03125" height="18" y="18" class="element-lower"/>
         <text font-size="12" x="3.6" y="12" font-weight="bold">minLoA</text>
         <line x1="0" y1="18" x2="142.03125" y2="18"/>
         <text font-size="12" fill="grey" x="3.6" y="30">type</text>
         <line x1="31.753125" y1="18" x2="31.753125" y2="36"/>
         <text font-size="12" x="35.353125" y="30">xes:Code.LOAType</text>
         <g transform="translate(142.03125,0)"/>
      </g>
      <line x1="33"
            y1="18"
            x2="55"
            y2="18"
            class="type-structure-optional"/>
      <text font-size="11" fill="black" x="53" y="16" text-anchor="end">0..1</text>
      <line x1="33"
            y1="18"
            x2="33"
            y2="18"
            class="type-structure-required"/>
      <g transform="translate(55,48)">
         <rect width="129.89374999999998" height="18" class="element-upper"/>
         <rect width="129.89374999999998"
               height="18"
               y="18"
               class="element-lower"/>
         <text font-size="12" x="3.6" y="12" font-weight="bold">additionalInformation</text>
         <line x1="0" y1="18" x2="129.89374999999998" y2="18"/>
         <text font-size="12" fill="grey" x="3.6" y="30">type</text>
         <line x1="31.753125" y1="18" x2="31.753125" y2="36"/>
         <text font-size="12" x="35.353125" y="30">xs:string</text>
         <g transform="translate(129.89374999999998,0)"/>
      </g>
      <line x1="33"
            y1="66"
            x2="55"
            y2="66"
            class="type-structure-optional"/>
      <text font-size="11" fill="black" x="53" y="64" text-anchor="end">0..*</text>
      <line x1="33"
            y1="18"
            x2="33"
            y2="66"
            class="type-structure-required"/>
      <g transform="translate(55,96)">
         <rect width="215.03125" height="18" class="element-upper"/>
         <rect width="215.03125" height="18" y="18" class="element-lower"/>
         <text font-size="12" x="3.6" y="12" font-weight="bold">jurisdictionLevel</text>
         <line x1="0" y1="18" x2="215.03125" y2="18"/>
         <text font-size="12" fill="grey" x="3.6" y="30">type</text>
         <line x1="31.753125" y1="18" x2="31.753125" y2="36"/>
         <text font-size="12" x="35.353125" y="30">xes:Code.Jurisdiction-LevelType</text>
         <g transform="translate(215.03125,0)"/>
      </g>
      <line x1="33"
            y1="114"
            x2="55"
            y2="114"
            class="type-structure-required"/>
      <text font-size="11"
            fill="black"
            x="53"
            y="112"
            text-anchor="end"/>
      <line x1="33"
            y1="66"
            x2="33"
            y2="114"
            class="type-structure-required"/>
      <g transform="translate(55,144)">
         <rect width="175.03125" height="18" class="element-upper"/>
         <rect width="175.03125" height="18" y="18" class="element-lower"/>
         <text font-size="12" x="3.6" y="12" font-weight="bold">distribution</text>
         <line x1="0" y1="18" x2="175.03125" y2="18"/>
         <text font-size="12" fill="grey" x="3.6" y="30">type</text>
         <line x1="31.753125" y1="18" x2="31.753125" y2="36"/>
         <text font-size="12" x="35.353125" y="30">xes:SDGDistributionType</text>
         <g transform="translate(175.03125,0)"/>
      </g>
      <line x1="33"
            y1="162"
            x2="55"
            y2="162"
            class="type-structure-optional"/>
      <text font-size="11"
            fill="black"
            x="53"
            y="160"
            text-anchor="end">0..*</text>
      <line x1="33"
            y1="114"
            x2="33"
            y2="162"
            class="type-structure-required"/>
      <g transform="translate(55,192)">
         <rect width="118.190625" height="18" class="element-upper"/>
         <rect width="118.190625" height="18" y="18" class="element-lower"/>
         <text font-size="12" x="3.6" y="12" font-weight="bold">jurisdictionContext</text>
         <line x1="0" y1="18" x2="118.190625" y2="18"/>
         <text font-size="12" fill="grey" x="3.6" y="30">type</text>
         <line x1="31.753125" y1="18" x2="31.753125" y2="36"/>
         <text font-size="12" x="35.353125" y="30">xs:string</text>
         <g transform="translate(118.190625,0)"/>
      </g>
      <line x1="33"
            y1="210"
            x2="55"
            y2="210"
            class="type-structure-required"/>
      <text font-size="11"
            fill="black"
            x="53"
            y="208"
            text-anchor="end"/>
      <line x1="33"
            y1="162"
            x2="33"
            y2="210"
            class="type-structure-required"/>
      <g transform="translate(55,240)">
         <rect width="180.03125" height="18" class="element-upper"/>
         <rect width="180.03125" height="18" y="18" class="element-lower"/>
         <text font-size="12" x="3.6" y="12" font-weight="bold">status</text>
         <line x1="0" y1="18" x2="180.03125" y2="18"/>
         <text font-size="12" fill="grey" x="3.6" y="30">type</text>
         <line x1="31.753125" y1="18" x2="31.753125" y2="36"/>
         <text font-size="12" x="35.353125" y="30">xes:Code.SDGStatusType</text>
         <g transform="translate(180.03125,0)"/>
      </g>
      <line x1="33"
            y1="258"
            x2="55"
            y2="258"
            class="type-structure-required"/>
      <text font-size="11"
            fill="black"
            x="53"
            y="256"
            text-anchor="end"/>
      <line x1="33"
            y1="210"
            x2="33"
            y2="258"
            class="type-structure-required"/>
      <circle cx="15"
              cy="18"
              r="10"
              stroke="black"
              fill="rgb(251, 251, 251)"/>
      <line x1="0"
            y1="18"
            x2="5"
            y2="18"
            class="type-structure-required"/>
      <line x1="25"
            y1="18"
            x2="33"
            y2="18"
            class="type-structure-required"/>
      <circle cx="10" cy="18" r="1.2" stroke="black" fill="black"/>
      <circle cx="15" cy="18" r="1.2" stroke="black" fill="black"/>
      <circle cx="20" cy="18" r="1.2" stroke="black" fill="black"/>
      <line x1="7" y1="18" x2="23" y2="18"/>
   </g>
</svg>
