<?xml version="1.0" encoding="UTF-8"?>
<svg xmlns="http://www.w3.org/2000/svg" width="413.3" height="382">
   <defs>
      <style type="text/css">
                        text {
                            font-family: 'Arial';
                            fill: black;
                        }
                        text.at {
                            font-family: 'Arial';
                            fill: rgb(242, 152, 0);
                        }
                        line {
                            stroke: black;
                        }
                        line.type-structure {
                            stroke: black;
                        }
                        line.type-structure-optional {
                            stroke: black;
                            stroke-dasharray: 4, 4;
                        }
                        rect.attribute-upper {
                            stroke: black;
                            fill: rgb(255, 239, 211);
                        }
                        rect.element-upper {
                            stroke: black;
                            fill: rgb(215, 227, 249);
                        }
                        rect.element-lower {
                            stroke: black;
                            fill: rgb(236, 242, 252);
                        }
                        a text {
                            fill: black;
                        } 
                    </style>
   </defs>
   <rect width="403.3"
         height="372"
         stroke-dasharray="3,3"
         rx="1"
         ry="1"
         style="stroke: grey;fill: white;"/>
   <text font-size="14" x="3.6" y="18" font-weight="bold">element view.nachweiszuordnung.0001 (anonymous type)</text>
   <g transform="translate(10,34)">
      <g transform="translate(55,0)">
         <rect width="169.03125" height="18" class="element-upper"/>
         <rect width="169.03125" height="18" y="18" class="element-lower"/>
         <text font-size="12" x="3.6" y="12" font-weight="bold">sdg2verfahren</text>
         <line x1="0" y1="18" x2="169.03125" y2="18"/>
         <text font-size="12" fill="grey" x="3.6" y="30">type</text>
         <line x1="31.753125" y1="18" x2="31.753125" y2="36"/>
         <text font-size="12" x="35.353125" y="30">xes:SDGProcedureType</text>
         <g transform="translate(169.03125,0)"/>
      </g>
      <line x1="33"
            y1="18"
            x2="55"
            y2="18"
            class="type-structure-required"/>
      <text font-size="11" fill="black" x="53" y="16" text-anchor="end"/>
      <line x1="33"
            y1="18"
            x2="33"
            y2="18"
            class="type-structure-required"/>
      <g transform="translate(55,48)">
         <rect width="118.03125" height="18" class="element-upper"/>
         <rect width="118.03125" height="18" y="18" class="element-lower"/>
         <text font-size="12" x="3.6" y="12" font-weight="bold">leika</text>
         <line x1="0" y1="18" x2="118.03125" y2="18"/>
         <text font-size="12" fill="grey" x="3.6" y="30">type</text>
         <line x1="31.753125" y1="18" x2="31.753125" y2="36"/>
         <text font-size="12" x="35.353125" y="30">xes:LeiKaType</text>
         <g transform="translate(118.03125,0)"/>
      </g>
      <line x1="33"
            y1="66"
            x2="55"
            y2="66"
            class="type-structure-optional"/>
      <text font-size="11" fill="black" x="53" y="64" text-anchor="end">0..*</text>
      <line x1="33"
            y1="18"
            x2="33"
            y2="66"
            class="type-structure-required"/>
      <g transform="translate(55,96)">
         <rect width="208.03125" height="18" class="element-upper"/>
         <rect width="208.03125" height="18" y="18" class="element-lower"/>
         <text font-size="12" x="3.6" y="12" font-weight="bold">nachweisanforderung</text>
         <line x1="0" y1="18" x2="208.03125" y2="18"/>
         <text font-size="12" fill="grey" x="3.6" y="30">type</text>
         <line x1="31.753125" y1="18" x2="31.753125" y2="36"/>
         <text font-size="12" x="35.353125" y="30">xes:NachweisanforderungType</text>
         <g transform="translate(208.03125,0)"/>
      </g>
      <line x1="33"
            y1="114"
            x2="55"
            y2="114"
            class="type-structure-required"/>
      <text font-size="11"
            fill="black"
            x="53"
            y="112"
            text-anchor="end"/>
      <line x1="33"
            y1="66"
            x2="33"
            y2="114"
            class="type-structure-required"/>
      <g transform="translate(55,144)">
         <rect width="202.03125" height="18" class="element-upper"/>
         <rect width="202.03125" height="18" y="18" class="element-lower"/>
         <text font-size="12" x="3.6" y="12" font-weight="bold">nachweisbuendel</text>
         <line x1="0" y1="18" x2="202.03125" y2="18"/>
         <text font-size="12" fill="grey" x="3.6" y="30">type</text>
         <line x1="31.753125" y1="18" x2="31.753125" y2="36"/>
         <text font-size="12" x="35.353125" y="30">xes:NachweistypBuendelType</text>
         <g transform="translate(202.03125,0)"/>
      </g>
      <line x1="33"
            y1="162"
            x2="55"
            y2="162"
            class="type-structure-required"/>
      <text font-size="11"
            fill="black"
            x="53"
            y="160"
            text-anchor="end"/>
      <line x1="33"
            y1="114"
            x2="33"
            y2="162"
            class="type-structure-required"/>
      <g transform="translate(55,192)">
         <rect width="156.03125" height="18" class="element-upper"/>
         <rect width="156.03125" height="18" y="18" class="element-lower"/>
         <text font-size="12" x="3.6" y="12" font-weight="bold">nachweis</text>
         <line x1="0" y1="18" x2="156.03125" y2="18"/>
         <text font-size="12" fill="grey" x="3.6" y="30">type</text>
         <line x1="31.753125" y1="18" x2="31.753125" y2="36"/>
         <text font-size="12" x="35.353125" y="30">xes:NachweistypType</text>
         <g transform="translate(156.03125,0)"/>
      </g>
      <line x1="33"
            y1="210"
            x2="55"
            y2="210"
            class="type-structure-required"/>
      <text font-size="11"
            fill="black"
            x="53"
            y="208"
            text-anchor="end"/>
      <line x1="33"
            y1="162"
            x2="33"
            y2="210"
            class="type-structure-required"/>
      <g transform="translate(55,240)">
         <rect width="148.03125" height="18" class="element-upper"/>
         <rect width="148.03125" height="18" y="18" class="element-lower"/>
         <text font-size="12" x="3.6" y="12" font-weight="bold">register</text>
         <line x1="0" y1="18" x2="148.03125" y2="18"/>
         <text font-size="12" fill="grey" x="3.6" y="30">type</text>
         <line x1="31.753125" y1="18" x2="31.753125" y2="36"/>
         <text font-size="12" x="35.353125" y="30">xes:RegistertypType</text>
         <g transform="translate(148.03125,0)"/>
      </g>
      <line x1="33"
            y1="258"
            x2="55"
            y2="258"
            class="type-structure-required"/>
      <text font-size="11"
            fill="black"
            x="53"
            y="256"
            text-anchor="end"/>
      <line x1="33"
            y1="210"
            x2="33"
            y2="258"
            class="type-structure-required"/>
      <g transform="translate(55,288)">
         <rect width="152.03125" height="18" class="element-upper"/>
         <rect width="152.03125" height="18" y="18" class="element-lower"/>
         <text font-size="12" x="3.6" y="12" font-weight="bold">stakeholder</text>
         <line x1="0" y1="18" x2="152.03125" y2="18"/>
         <text font-size="12" fill="grey" x="3.6" y="30">type</text>
         <line x1="31.753125" y1="18" x2="31.753125" y2="36"/>
         <text font-size="12" x="35.353125" y="30">xes:StakeholderType</text>
         <g transform="translate(152.03125,0)"/>
      </g>
      <line x1="33"
            y1="306"
            x2="55"
            y2="306"
            class="type-structure-optional"/>
      <text font-size="11"
            fill="black"
            x="53"
            y="304"
            text-anchor="end">0..*</text>
      <line x1="33"
            y1="258"
            x2="33"
            y2="306"
            class="type-structure-optional"/>
      <circle cx="15"
              cy="18"
              r="10"
              stroke="black"
              fill="rgb(251, 251, 251)"/>
      <line x1="0"
            y1="18"
            x2="5"
            y2="18"
            class="type-structure-required"/>
      <line x1="25"
            y1="18"
            x2="33"
            y2="18"
            class="type-structure-required"/>
      <circle cx="10" cy="18" r="1.2" stroke="black" fill="black"/>
      <circle cx="15" cy="18" r="1.2" stroke="black" fill="black"/>
      <circle cx="20" cy="18" r="1.2" stroke="black" fill="black"/>
      <line x1="7" y1="18" x2="23" y2="18"/>
   </g>
</svg>
